<svg width="204" height="163" viewBox="0 0 204 163" fill="none" xmlns="http://www.w3.org/2000/svg">
<g clip-path="url(#clip0_307_1886)">
<path d="M109.238 42.583C108.999 36.7984 109.997 31.0303 112.162 25.6892C114.328 20.348 117.608 15.5652 121.768 11.6809L121.801 11.6537C130.415 3.77132 141.633 -0.395871 153.138 0.0128247L153.066 0.0128247C160.02 -0.37528 166.972 0.821872 173.427 3.51926C179.883 6.21665 185.683 10.3481 190.417 15.6201L190.444 15.6472C199.934 27.2705 204.775 42.1905 203.98 57.3684L203.987 57.2258C204.428 72.988 201.589 88.6646 195.662 103.199L195.925 102.472C191.193 113.867 184.627 124.354 176.506 133.489L176.578 133.408C169.869 140.92 162.094 147.339 153.52 152.445L153.046 152.703C146.561 156.564 139.793 159.896 132.804 162.666L131.777 163.026L111.153 127.098C119.724 123.53 127.246 117.72 132.981 110.242L133.067 110.126C138.778 103.106 142.359 94.5052 143.366 85.3977L143.385 85.1803C138.898 85.0643 134.484 83.971 130.435 81.9719C126.385 79.9728 122.79 77.1131 119.886 73.5802L119.846 73.5326C112.462 65.0471 108.642 53.8842 109.225 42.4947L109.219 42.5966L109.238 42.583ZM-2.29035 42.583C-2.5277 36.7971 -1.52754 31.0282 0.63908 25.6862C2.8057 20.3443 6.0856 15.5603 10.2458 11.6741L10.2787 11.647C18.8907 3.76149 30.1099 -0.406162 41.6157 0.00603355L41.5433 0.00603356C48.4978 -0.383958 55.4502 0.812347 61.9059 3.50985C68.3617 6.20735 74.1622 10.3398 78.8951 15.6133L78.9214 15.6472C88.416 27.2709 93.2572 42.1946 92.4578 57.3752L92.4644 57.2326C92.9054 72.9948 90.0668 88.6714 84.1398 103.205L84.4031 102.479C79.6731 113.872 73.112 124.359 64.9968 133.496L65.0691 133.415C58.3573 140.927 50.5805 147.346 42.004 152.452L41.5302 152.71C35.0465 156.574 28.2782 159.905 21.2881 162.673L20.2615 163.033L-0.355637 127.105C8.21571 123.532 15.7383 117.718 21.4724 110.235L21.5579 110.119C27.2686 103.099 30.8504 94.4984 31.8566 85.3909L31.8764 85.1735C27.3904 85.0582 22.9788 83.9651 18.9311 81.9659C14.8834 79.9667 11.2911 77.1066 8.39004 73.5734L8.35055 73.5258C0.958371 65.0467 -2.86903 53.8852 -2.29035 42.4947L-2.29693 42.5966L-2.29035 42.583Z" fill="#0057A7" fill-opacity="0.3"/>
</g>
<defs>
<clipPath id="clip0_307_1886">
<rect width="204" height="163" fill="white" transform="translate(204 162.999) rotate(180)"/>
</clipPath>
</defs>
</svg>
